<svg width="11" height="11" viewBox="0 0 11 11" fill="none" xmlns="http://www.w3.org/2000/svg">
<path d="M10.1042 0.427734H1.77083C1.54982 0.427734 1.33786 0.515532 1.18158 0.671812C1.0253 0.828092 0.9375 1.04005 0.9375 1.26107V9.5944C0.9375 9.81541 1.0253 10.0274 1.18158 10.1837C1.33786 10.3399 1.54982 10.4277 1.77083 10.4277H10.1042C10.3252 10.4277 10.5371 10.3399 10.6934 10.1837C10.8497 10.0274 10.9375 9.81541 10.9375 9.5944V1.26107C10.9375 1.04005 10.8497 0.828092 10.6934 0.671812C10.5371 0.515532 10.3252 0.427734 10.1042 0.427734V0.427734ZM8.51562 4.47982L5.46354 7.39648C5.38464 7.47071 5.2802 7.51174 5.17188 7.51107C5.06514 7.51147 4.96243 7.47039 4.88542 7.39648L3.35937 5.93815C3.31705 5.90122 3.28263 5.85612 3.25817 5.80555C3.23372 5.75497 3.21975 5.69998 3.2171 5.64387C3.21444 5.58776 3.22316 5.5317 3.24273 5.47904C3.26229 5.42639 3.2923 5.37824 3.33096 5.33748C3.36961 5.29672 3.4161 5.26419 3.46764 5.24186C3.51918 5.21953 3.57471 5.20785 3.63088 5.20752C3.68705 5.2072 3.74271 5.21823 3.7945 5.23996C3.8463 5.26169 3.89317 5.29368 3.93229 5.33398L5.17188 6.51628L7.94271 3.87565C8.02372 3.80497 8.12893 3.76834 8.23632 3.77342C8.34372 3.7785 8.44499 3.8249 8.51898 3.90292C8.59296 3.98093 8.63392 4.08453 8.63329 4.19204C8.63267 4.29955 8.59051 4.40267 8.51562 4.47982Z" fill="currentColor"/>
</svg>
