<svg width="17" height="16" viewBox="0 0 17 16" fill="none" xmlns="http://www.w3.org/2000/svg">
<path d="M11.6273 0.888672C10.9405 0.888672 10.2631 1.04932 9.64879 1.35788C9.03449 1.66645 8.50014 2.11447 8.08806 2.66645C7.53095 1.9202 6.75424 1.36897 5.86796 1.09083C4.98168 0.8127 4.03075 0.821765 3.14988 1.11675C2.26901 1.41173 1.50286 1.97767 0.959941 2.7344C0.417027 3.49114 0.124878 4.40031 0.124878 5.33312C0.124878 10.659 7.49082 14.859 7.8005 15.0368C7.88825 15.0864 7.98741 15.1119 8.08806 15.1109C8.1888 15.1126 8.28814 15.087 8.37562 15.0368C9.73209 14.2402 11.0044 13.307 12.1729 12.2516C14.7462 9.92571 16.0512 7.59978 16.0512 5.33312C16.0512 4.15438 15.5852 3.02391 14.7555 2.19042C13.9258 1.35692 12.8006 0.888672 11.6273 0.888672V0.888672Z" fill="currentColor"/>
</svg>
