<svg width="165" height="217" viewBox="0 0 165 217" fill="none" xmlns="http://www.w3.org/2000/svg">
<g opacity="0.3">
<path opacity="0.3" d="M139.67 49.24C134.202 49.2373 128.959 47.0641 125.093 43.1976C121.226 39.3312 119.053 34.0879 119.05 28.62V0H26.9102C23.3754 -2.4406e-07 19.8754 0.696337 16.6099 2.04932C13.3443 3.4023 10.3771 5.38537 7.87818 7.88525C5.37922 10.3851 3.39742 13.3529 2.04566 16.6189C0.69389 19.8849 -0.00131167 23.3853 1.85789e-06 26.92V189.13C-0.00131167 192.665 0.69389 196.165 2.04566 199.431C3.39742 202.697 5.37922 205.665 7.87818 208.165C10.3771 210.665 13.3443 212.648 16.6099 214.001C19.8754 215.354 23.3754 216.05 26.9102 216.05H137.51C141.045 216.05 144.545 215.354 147.81 214.001C151.076 212.648 154.043 210.665 156.542 208.165C159.041 205.665 161.023 202.697 162.375 199.431C163.726 196.165 164.421 192.665 164.42 189.13V49.25L139.67 49.24Z" fill="#00C650"/>
</g>
<path d="M164.85 49.24H140.1C134.632 49.2373 129.389 47.0641 125.522 43.1976C121.656 39.3312 119.483 34.0879 119.48 28.62V0L164.85 49.24Z" fill="#00C650"/>
<path d="M109.832 175H55.1805C49.8303 174.994 44.7011 172.888 40.918 169.145C37.1348 165.402 35.0065 160.328 35 155.035V100.965C35.0065 95.6723 37.1348 90.5977 40.918 86.8549C44.7011 83.1121 49.8303 81.0065 55.1805 81H109.832C115.181 81.0065 120.309 83.1125 124.09 86.8556C127.871 90.5988 129.997 95.6734 130 100.965V155.035C129.997 160.327 127.871 165.401 124.09 169.144C120.309 172.888 115.181 174.994 109.832 175ZM55.1805 89.8258C52.1953 89.8291 49.3331 91.0038 47.2223 93.0922C45.1114 95.1805 43.9242 98.012 43.9209 100.965V155.035C43.9242 157.988 45.1114 160.819 47.2223 162.908C49.3331 164.996 52.1953 166.171 55.1805 166.174H109.832C112.816 166.171 115.677 164.996 117.786 162.907C119.894 160.818 121.079 157.987 121.079 155.035V100.965C121.079 98.0132 119.894 95.1816 117.786 93.0929C115.677 91.0042 112.816 89.8291 109.832 89.8258H55.1805Z" fill="#00C650"/>
<path d="M125 144.709V155.176C124.997 159.371 123.361 163.394 120.452 166.361C117.542 169.328 113.598 170.997 109.483 171H55.5167C51.4014 171 47.4547 169.333 44.5447 166.365C41.6348 163.397 40 159.373 40 155.176V137.607C48.6381 135.713 61.7967 135.115 77.7655 141.619L87.6622 132L94.4062 149.444C94.4062 149.444 96.2145 143.027 102.055 143.937C107.895 144.846 117.352 148.073 121.396 145.32C122.485 144.679 123.766 144.462 125 144.709Z" fill="#00C650"/>
<path d="M106 112C109.314 112 112 109.314 112 106C112 102.686 109.314 100 106 100C102.686 100 100 102.686 100 106C100 109.314 102.686 112 106 112Z" fill="#00C650"/>
</svg>
