<svg width="165" height="217" viewBox="0 0 165 217" fill="none" xmlns="http://www.w3.org/2000/svg">
<g opacity="0.3">
<path opacity="0.3" d="M139.67 49.25C134.203 49.2447 128.961 47.0704 125.095 43.2046C121.229 39.3387 119.055 34.097 119.05 28.6299V1.85854e-06H26.92C23.3853 -0.00131167 19.8849 0.693646 16.6189 2.04541C13.3529 3.39718 10.3853 5.37922 7.88538 7.87818C5.38549 10.3771 3.40242 13.3441 2.04944 16.6096C0.696459 19.8751 -2.4406e-07 23.3752 0 26.9099V189.13C-2.4406e-07 192.665 0.696459 196.165 2.04944 199.43C3.40242 202.696 5.38549 205.663 7.88538 208.162C10.3853 210.661 13.3529 212.643 16.6189 213.994C19.8849 215.346 23.3853 216.041 26.92 216.04H137.52C141.054 216.04 144.553 215.344 147.818 213.992C151.083 212.639 154.05 210.657 156.548 208.158C159.047 205.659 161.029 202.693 162.382 199.428C163.734 196.163 164.43 192.664 164.43 189.13V49.25H139.67Z" fill="#086CD9"/>
</g>
<path d="M164.43 49.25H139.67C134.203 49.2447 128.961 47.0704 125.095 43.2046C121.229 39.3387 119.055 34.097 119.05 28.6299V0L164.43 49.25Z" fill="#086CD9"/>
<path d="M130.6 107.73H27.36C26.3681 107.73 25.4169 107.336 24.7155 106.635C24.0141 105.933 23.62 104.982 23.62 103.99C23.6187 103.498 23.7145 103.011 23.9019 102.556C24.0892 102.101 24.3645 101.687 24.7119 101.339C25.0593 100.991 25.4721 100.714 25.9265 100.526C26.3809 100.337 26.868 100.24 27.36 100.24H130.6C131.595 100.24 132.548 100.635 133.252 101.338C133.955 102.042 134.35 102.995 134.35 103.99C134.347 104.983 133.951 105.934 133.248 106.635C132.545 107.336 131.593 107.73 130.6 107.73Z" fill="#086CD9"/>
<path d="M130.6 130.1H27.36C26.3681 130.1 25.4169 129.706 24.7155 129.005C24.0141 128.303 23.62 127.352 23.62 126.36C23.6187 125.868 23.7145 125.381 23.9019 124.926C24.0892 124.471 24.3645 124.057 24.7119 123.709C25.0593 123.361 25.4721 123.084 25.9265 122.896C26.3809 122.707 26.868 122.61 27.36 122.61H130.6C131.595 122.61 132.548 123.005 133.252 123.708C133.955 124.412 134.35 125.366 134.35 126.36C134.347 127.353 133.951 128.304 133.248 129.005C132.545 129.706 131.593 130.1 130.6 130.1Z" fill="#086CD9"/>
<path d="M130.6 152.47H27.36C26.868 152.47 26.3809 152.373 25.9265 152.184C25.4721 151.996 25.0593 151.719 24.7119 151.371C24.3645 151.023 24.0892 150.609 23.9019 150.154C23.7145 149.699 23.6187 149.212 23.62 148.72C23.62 147.728 24.0141 146.777 24.7155 146.075C25.4169 145.374 26.3681 144.98 27.36 144.98H130.6C131.593 144.98 132.545 145.374 133.248 146.075C133.951 146.776 134.347 147.727 134.35 148.72C134.35 149.715 133.955 150.668 133.252 151.372C132.548 152.075 131.595 152.47 130.6 152.47Z" fill="#086CD9"/>
<path d="M89.88 174.84H27.36C26.868 174.84 26.3809 174.743 25.9265 174.554C25.4721 174.366 25.0593 174.089 24.7119 173.741C24.3645 173.393 24.0892 172.979 23.9019 172.524C23.7145 172.07 23.6187 171.582 23.62 171.09C23.62 170.098 24.0141 169.147 24.7155 168.445C25.4169 167.744 26.3681 167.35 27.36 167.35H89.88C90.8719 167.35 91.8233 167.744 92.5247 168.445C93.2261 169.147 93.62 170.098 93.62 171.09C93.6213 171.582 93.5256 172.07 93.3383 172.524C93.1509 172.979 92.8756 173.393 92.5282 173.741C92.1808 174.089 91.768 174.366 91.3136 174.554C90.8592 174.743 90.372 174.84 89.88 174.84Z" fill="#086CD9"/>
</svg>
