<svg width="165" height="216" viewBox="0 0 165 216" fill="none" xmlns="http://www.w3.org/2000/svg">
<g opacity="0.3">
<path opacity="0.3" d="M139.67 49.24C134.203 49.2347 128.961 47.0606 125.095 43.1947C121.229 39.3288 119.055 34.0871 119.05 28.62V0H26.9099C19.7747 -4.92665e-07 12.9316 2.83379 7.88525 7.87823C2.83894 12.9227 0.00265152 19.7648 0 26.9V189.12C0.0079507 196.252 2.84659 203.089 7.89233 208.129C12.9381 213.169 19.7781 216 26.9099 216H137.51C141.045 216.001 144.545 215.306 147.811 213.954C151.077 212.603 154.045 210.621 156.545 208.122C159.045 205.623 161.028 202.656 162.381 199.39C163.734 196.125 164.43 192.625 164.43 189.09V49.24H139.67Z" fill="#CB3CFF"/>
</g>
<path d="M164.43 49.24H139.67C134.203 49.2347 128.961 47.0606 125.095 43.1947C121.229 39.3288 119.055 34.0871 119.05 28.62V0L164.43 49.24Z" fill="#CB3CFF"/>
<path d="M130 169.572L130 108.703C129.997 108.408 129.967 108.113 129.911 107.823C129.897 107.736 129.876 107.651 129.847 107.568C129.801 107.368 129.741 107.172 129.668 106.981C129.635 106.893 129.597 106.808 129.553 106.726C129.475 106.539 129.381 106.36 129.273 106.19L129.145 105.986C128.984 105.755 128.805 105.537 128.609 105.335L128.52 105.258C128.346 105.095 128.163 104.941 127.971 104.799L127.742 104.659L127.231 104.378L126.963 104.263C126.764 104.186 126.559 104.122 126.351 104.072L126.147 104.072C125.857 104.011 125.562 103.981 125.267 103.983L39.3275 103.983C38.1464 104.091 37.048 104.636 36.2479 105.512C35.4479 106.387 35.0037 107.53 35.0023 108.716C35.0023 108.792 35.0023 108.856 35.0023 108.933L35.0023 169.789C34.9715 170.573 35.2203 171.341 35.7041 171.958C36.1226 172.665 36.7179 173.251 37.4315 173.658C38.1451 174.065 38.9523 174.28 39.7739 174.28L125.254 174.28C126.504 174.274 127.702 173.777 128.589 172.896C129.477 172.016 129.983 170.822 130 169.572ZM40.1311 115.439L40.1311 106.203L47.6456 106.203L47.6456 115.439L40.1311 115.439ZM52.8127 115.439L52.8127 106.203L60.3274 106.203L60.3274 115.439L52.8127 115.439ZM65.4943 115.439L65.4943 106.203L73.009 106.203L73.009 115.439L65.4943 115.439ZM78.1761 115.439L78.1761 106.203L85.6906 106.203L85.6906 115.439L78.1761 115.439ZM90.8577 115.439L90.8577 106.203L98.3721 106.203L98.3721 115.439L90.8577 115.439ZM103.539 115.439L103.539 106.203L111.054 106.203L111.054 115.439L103.539 115.439ZM116.221 115.439L116.221 106.203L123.736 106.203L123.736 115.439L116.221 115.439ZM38.3959 160.234L38.3959 117.94L126.721 117.94L126.721 160.234L38.3959 160.234ZM40.1184 171.958L40.1184 162.721L47.6328 162.721L47.6328 171.958L40.1184 171.958ZM52.7999 171.958L52.7999 162.721L60.3147 162.721L60.3147 171.958L52.7999 171.958ZM65.4818 171.958L65.4818 162.721L72.9962 162.721L72.9962 171.958L65.4818 171.958ZM78.1634 171.958L78.1634 162.721L85.6778 162.721L85.6778 171.958L78.1634 171.958ZM90.8449 171.958L90.8449 162.721L98.3594 162.721L98.3594 171.958L90.8449 171.958ZM103.527 171.958L103.527 162.721L111.041 162.721L111.041 171.958L103.527 171.958ZM116.208 171.958L116.208 162.721L123.723 162.721L123.723 171.958L116.208 171.958Z" fill="#CB3CFF"/>
<path d="M92.7202 135.955L80.5105 128.899C79.8789 128.538 79.1636 128.348 78.4358 128.349C77.7079 128.351 76.9931 128.543 76.3629 128.907C75.7326 129.272 75.2091 129.795 74.8444 130.425C74.4797 131.055 74.2867 131.769 74.2847 132.497L74.2847 146.608C74.2867 147.335 74.4797 148.05 74.8444 148.68C75.2091 149.31 75.7326 149.833 76.3629 150.197C76.9931 150.561 77.7079 150.754 78.4358 150.755C79.1636 150.757 79.8789 150.567 80.5105 150.205L92.7202 143.15C93.3505 142.785 93.8737 142.26 94.2374 141.628C94.6011 140.997 94.7928 140.281 94.7928 139.552C94.7928 138.824 94.6011 138.108 94.2374 137.476C93.8737 136.845 93.3505 136.32 92.7202 135.955Z" fill="#CB3CFF"/>
</svg>
