<svg width="11" height="11" viewBox="0 0 11 11" fill="none" xmlns="http://www.w3.org/2000/svg">
<path d="M5.04152 0.427734C3.99992 0.428916 3.00132 0.843213 2.26479 1.57974C1.52827 2.31626 1.11397 3.31486 1.11279 4.35646C1.11279 7.7182 4.68436 10.2585 4.83615 10.3656C4.89698 10.4061 4.96843 10.4277 5.04152 10.4277C5.1146 10.4277 5.18605 10.4061 5.24688 10.3656C5.39867 10.2585 8.97024 7.7182 8.97024 4.35646C8.96906 3.31486 8.55476 2.31626 7.81824 1.57974C7.08172 0.843213 6.08312 0.428916 5.04152 0.427734V0.427734ZM5.04152 2.92783C5.32407 2.92783 5.60028 3.01162 5.83522 3.1686C6.07016 3.32558 6.25327 3.5487 6.3614 3.80975C6.46953 4.07079 6.49782 4.35804 6.44269 4.63517C6.38757 4.9123 6.25151 5.16685 6.05171 5.36665C5.85191 5.56645 5.59735 5.70251 5.32023 5.75763C5.0431 5.81276 4.75585 5.78447 4.4948 5.67634C4.23376 5.56821 4.01064 5.3851 3.85366 5.15016C3.69668 4.91522 3.61289 4.63901 3.61289 4.35646C3.61289 3.97756 3.76341 3.61419 4.03133 3.34627C4.29924 3.07835 4.66262 2.92783 5.04152 2.92783V2.92783Z" fill="currentColor"/>
</svg>
