<svg width="17" height="16" viewBox="0 0 17 16" fill="none" xmlns="http://www.w3.org/2000/svg">
<path d="M8.08819 0C6.51322 0 4.97362 0.469192 3.66408 1.34824C2.35454 2.22729 1.33388 3.47672 0.731165 4.93853C0.12845 6.40034 -0.0292473 8.00887 0.278014 9.56072C0.585275 11.1126 1.34369 12.538 2.45737 13.6569C3.57104 14.7757 4.98994 15.5376 6.53465 15.8463C8.07935 16.155 9.68048 15.9965 11.1356 15.391C12.5906 14.7855 13.8343 13.7602 14.7093 12.4446C15.5843 11.129 16.0514 9.58225 16.0514 8C16.0473 5.87952 15.207 3.84705 13.7145 2.34764C12.222 0.848226 10.1989 0.00406613 8.08819 0V0ZM4.41287 8.92307C4.23114 8.92307 4.0535 8.86894 3.9024 8.76751C3.7513 8.66608 3.63353 8.52191 3.56398 8.35324C3.49444 8.18457 3.47624 7.99897 3.5117 7.81991C3.54715 7.64086 3.63466 7.47638 3.76316 7.34728C3.89166 7.21819 4.05538 7.13027 4.23362 7.09466C4.41185 7.05904 4.5966 7.07732 4.76449 7.14719C4.93239 7.21705 5.07589 7.33537 5.17685 7.48716C5.27781 7.63896 5.3317 7.81743 5.3317 8C5.3317 8.24481 5.2349 8.4796 5.06258 8.65271C4.89027 8.82582 4.65656 8.92307 4.41287 8.92307ZM8.08819 8.92307C7.90646 8.92307 7.72881 8.86894 7.57771 8.76751C7.42661 8.66608 7.30884 8.52191 7.2393 8.35324C7.16976 8.18457 7.15156 7.99897 7.18701 7.81991C7.22247 7.64086 7.30998 7.47638 7.43848 7.34728C7.56698 7.21819 7.7307 7.13027 7.90893 7.09466C8.08717 7.05904 8.27191 7.07732 8.43981 7.14719C8.6077 7.21705 8.7512 7.33537 8.85216 7.48716C8.95313 7.63896 9.00702 7.81743 9.00702 8C9.00702 8.24481 8.91021 8.4796 8.7379 8.65271C8.56558 8.82582 8.33187 8.92307 8.08819 8.92307ZM11.7635 8.92307C11.5818 8.92307 11.4041 8.86894 11.253 8.76751C11.1019 8.66608 10.9842 8.52191 10.9146 8.35324C10.8451 8.18457 10.8269 7.99897 10.8623 7.81991C10.8978 7.64086 10.9853 7.47638 11.1138 7.34728C11.2423 7.21819 11.406 7.13027 11.5842 7.09466C11.7625 7.05904 11.9472 7.07732 12.1151 7.14719C12.283 7.21705 12.4265 7.33537 12.5275 7.48716C12.6284 7.63896 12.6823 7.81743 12.6823 8C12.6823 8.24481 12.5855 8.4796 12.4132 8.65271C12.2409 8.82582 12.0072 8.92307 11.7635 8.92307Z" fill="currentColor"/>
</svg>
