<svg width="10" height="11" viewBox="0 0 10 11" fill="none" xmlns="http://www.w3.org/2000/svg">
<path d="M2.85847 5.46216C3.30669 6.38776 4.05516 7.13431 4.98191 7.58015C5.05027 7.61252 5.12589 7.62653 5.20131 7.6208C5.27673 7.61507 5.34936 7.5898 5.41205 7.54748L6.77322 6.63821C6.83336 6.59742 6.90286 6.57254 6.97522 6.56587C7.04758 6.55921 7.12044 6.57098 7.18702 6.6001L9.73515 7.69449C9.82224 7.73073 9.89499 7.7946 9.94222 7.87626C9.98944 7.95792 10.0085 8.05284 9.99649 8.1464C9.91573 8.77676 9.60805 9.35609 9.13103 9.77599C8.654 10.1959 8.04032 10.4276 7.40481 10.4277C5.44093 10.4277 3.55749 9.64759 2.16882 8.25892C0.780148 6.87024 0 4.9868 0 3.02292C0.000143231 2.38742 0.231844 1.77373 0.651746 1.29671C1.07165 0.819683 1.65098 0.512003 2.28134 0.43124C2.3749 0.419222 2.46981 0.438293 2.55147 0.485517C2.63313 0.532741 2.697 0.605499 2.73325 0.692587L3.82763 3.24616C3.85609 3.31168 3.868 3.3832 3.8623 3.45441C3.8566 3.52563 3.83348 3.59434 3.79497 3.65451L2.8857 5.03747C2.84522 5.10002 2.82146 5.17191 2.81669 5.24626C2.81193 5.32062 2.82631 5.39495 2.85847 5.46216V5.46216Z" fill="currentColor"/>
</svg>
