<svg width="14" height="15" viewBox="0 0 14 15" fill="none" xmlns="http://www.w3.org/2000/svg">
<path fill-rule="evenodd" clip-rule="evenodd" d="M5.25561 0.5C4.97947 0.5 4.75561 0.723857 4.75561 1V3.61548L2.49256 2.30863C2.25343 2.17054 1.94766 2.25247 1.80961 2.49163L0.0674534 5.50976C-0.0705962 5.74892 0.0113488 6.05475 0.250483 6.19284L2.51354 7.49969L0.250374 8.8066C0.0112398 8.94469 -0.0707055 9.25052 0.0673441 9.48968L1.8095 12.5078C1.94755 12.747 2.25332 12.8289 2.49245 12.6908L4.75561 11.3839V14C4.75561 14.2761 4.97947 14.5 5.25561 14.5H8.73977C9.01591 14.5 9.23977 14.2761 9.23977 14V11.3839L11.5063 12.6928C11.7455 12.8309 12.0512 12.7489 12.1893 12.5098L13.9314 9.49163C14.0695 9.25247 13.9875 8.94665 13.7484 8.80855L11.4819 7.49969L13.7483 6.19088C13.9874 6.05279 14.0694 5.74697 13.9313 5.50781L12.1892 2.48968C12.0511 2.25052 11.7454 2.16859 11.5062 2.30668L9.23977 3.61549V1C9.23977 0.723858 9.01591 0.5 8.73977 0.5H5.25561ZM6.99912 9.37256C8.03322 9.37256 8.87153 8.53408 8.87153 7.49976C8.87153 6.46544 8.03322 5.62695 6.99912 5.62695C5.96501 5.62695 5.12671 6.46544 5.12671 7.49976C5.12671 8.53408 5.96501 9.37256 6.99912 9.37256Z" fill="currentColor"/>
</svg>
