<svg width="15" height="14" viewBox="0 0 15 14" fill="none" xmlns="http://www.w3.org/2000/svg">
<path d="M4.33558 6.47982C4.84534 6.47982 5.31264 6.24306 5.69066 5.87929C5.29416 5.16829 5.06783 4.36391 5.06783 3.59206C5.06783 2.93749 5.22573 2.32006 5.50367 1.77486C5.15895 1.56347 4.75605 1.43958 4.32387 1.43958C3.06065 1.43958 2.03674 2.47832 2.03674 3.75952C2.03674 5.0409 3.07236 6.47982 4.33558 6.47982Z" fill="currentColor"/>
<path d="M5.8738 7.57994C5.65058 7.53178 5.41949 7.50513 5.18199 7.50513H3.4811C1.67116 7.50513 0.203735 8.97713 0.203735 10.793L0.21142 11.1818C0.21142 11.6892 0.621457 12.1005 1.12719 12.1005H2.80429C2.88663 10.0802 4.12479 8.35785 5.8738 7.57994Z" fill="currentColor"/>
<path d="M9.01602 6.96472C10.5822 6.96472 11.8376 5.18041 11.8376 3.59169C11.8376 2.00297 10.5678 0.714966 9.00157 0.714966C7.43534 0.714966 6.16553 2.00297 6.16553 3.59169C6.16571 5.18041 7.4498 6.96472 9.01602 6.96472Z" fill="currentColor"/>
<path d="M14.1296 12.3137C14.1296 10.062 12.3101 8.23669 10.0658 8.23669H7.95672C5.7124 8.23669 3.89294 10.062 3.89294 12.3137L3.90264 12.7959C3.90264 13.4249 4.41093 13.935 5.03816 13.935H13.004C13.631 13.935 14.1395 13.4249 14.1395 12.7959L14.1296 12.3137Z" fill="currentColor"/>
</svg>
